<svg>
    <symbol id="facebook" xmlns="http://www.w3.org/2000/svg" viewBox="0 0 13 26">
		<path  class="shp0" d="M12.09 0.2C12.09 1.68 12.09 4.32 12.09 4.32C12.09 4.32 9.05 4.02 8.29 5.18C7.88 5.82 8.12 7.68 8.09 9.02C9.41 9.02 10.79 9.02 12.11 9.02C11.77 10.58 11.53 11.64 11.28 13C10.13 13 8.06 13 8.06 13L8.06 25.8C8.06 25.8 4.27 25.8 2.48 25.8C2.48 21.85 2.48 17.25 2.48 13.05C1.61 13.05 0.97 13.05 0.11 13.05C0.11 11.57 0.11 10.5 0.11 9.02C0.95 9.02 1.61 9.02 2.45 9.02C2.58 6.07 2.62 3.15 4.08 1.67C5.73 0 7.3 0.2 12.09 0.2Z" />
    </symbol>
    <symbol id="instagram" xmlns="http://www.w3.org/2000/svg" viewBox="0 0 26 26">
		<path  class="shp0" d="M22.7 25.8L3.5 25.8C1.73 25.8 0.3 24.37 0.3 22.6L0.3 3.4C0.3 1.63 1.73 0.2 3.5 0.2L22.7 0.2C24.47 0.2 25.9 1.63 25.9 3.4L25.9 22.6C25.9 24.37 24.47 25.8 22.7 25.8ZM13.1 8.04C11.1 8.04 9.39 9.22 8.6 10.92L8.6 10.92C8.59 10.94 8.58 10.96 8.58 10.97C8.53 11.08 8.49 11.19 8.45 11.3C8.43 11.35 8.41 11.4 8.39 11.45C8.35 11.56 8.32 11.68 8.29 11.79C8.28 11.84 8.26 11.9 8.25 11.95C8.23 12.07 8.21 12.19 8.19 12.32C8.19 12.37 8.17 12.42 8.17 12.47C8.15 12.64 8.14 12.82 8.14 13C8.14 15.74 10.36 17.96 13.1 17.96C15.84 17.96 18.06 15.74 18.06 13C18.06 12.82 18.05 12.64 18.03 12.47C18.03 12.42 18.01 12.37 18.01 12.32C17.99 12.19 17.97 12.07 17.95 11.95C17.93 11.9 17.92 11.84 17.91 11.79C17.88 11.68 17.85 11.56 17.81 11.45C17.79 11.4 17.77 11.35 17.75 11.3C17.71 11.19 17.67 11.08 17.62 10.97C17.62 10.96 17.61 10.94 17.6 10.92L17.6 10.92C16.81 9.22 15.1 8.04 13.1 8.04ZM23.02 4.36C23.02 3.65 22.45 3.08 21.74 3.08L19.18 3.08C18.47 3.08 17.9 3.65 17.9 4.36L17.9 6.92C17.9 7.63 18.47 8.2 19.18 8.2L21.74 8.2C22.45 8.2 23.02 7.63 23.02 6.92L23.02 4.36ZM23.02 10.92L20.66 10.92C20.84 11.58 20.94 12.28 20.94 13C20.94 17.33 17.43 20.84 13.1 20.84C8.77 20.84 5.26 17.33 5.26 13C5.26 12.28 5.36 11.58 5.54 10.92L3.18 10.92L3.18 21.64C3.18 22.35 3.75 22.92 4.46 22.92L21.74 22.92C22.45 22.92 23.02 22.35 23.02 21.64L23.02 10.92Z" />
    </symbol>
    <symbol id="pinterest" xmlns="http://www.w3.org/2000/svg" viewBox="0 0 21 26">
        <path  class="shp0" d="M9.05 16.85C8.84 17.69 8.63 18.56 8.41 19.41C8.2 20.26 8.01 21.11 7.7 21.88C7.18 23.17 6.52 24.4 5.65 25.41C5.08 26.07 5.2 25.81 5.03 25.77C4.89 25.74 4.88 25.61 4.86 25.43C4.72 24.41 4.81 23.23 4.86 22.09C4.92 20.78 5.2 19.7 5.45 18.61C5.94 16.55 6.4 14.53 6.89 12.45C6.92 12.31 7.01 12.08 6.98 12.01C6.76 11.43 6.61 10.91 6.55 10.31C6.48 9.61 6.53 8.96 6.69 8.36C6.96 7.3 7.6 6.37 8.58 6.02C9.21 5.81 9.9 5.91 10.32 6.16C10.75 6.41 11.05 6.82 11.18 7.4C11.33 8.02 11.22 8.75 11.1 9.29C10.84 10.51 10.49 11.43 10.17 12.6C10.01 13.19 9.83 13.79 9.98 14.41C10.11 14.99 10.41 15.39 10.83 15.69C11.25 16 11.75 16.17 12.45 16.15C13.68 16.1 14.53 15.32 15.1 14.58C16.01 13.39 16.57 11.79 16.78 9.89C16.84 9.28 16.89 8.57 16.85 7.88C16.76 6.59 16.36 5.56 15.72 4.76C15.11 4 14.25 3.39 13.21 3.05C12.17 2.71 10.73 2.6 9.46 2.82C7.14 3.21 5.51 4.53 4.55 6.35C4.04 7.3 3.71 8.4 3.71 9.76C3.71 10.81 3.97 11.62 4.39 12.26C4.52 12.46 4.71 12.63 4.84 12.86C5.03 13.18 4.82 13.67 4.72 14.02C4.61 14.45 4.6 15.03 4.11 15.04C3.9 15.05 3.64 14.9 3.47 14.8C2.16 14.08 1.37 12.77 1.05 11.06C0.85 10.03 0.85 8.83 1.05 7.83C1.24 6.86 1.59 5.97 1.98 5.25C2.8 3.74 3.99 2.54 5.44 1.68C6.56 1.02 7.82 0.56 9.35 0.34C9.86 0.26 10.38 0.23 10.95 0.21C12.62 0.13 14.14 0.5 15.28 1.01C16.49 1.55 17.45 2.27 18.26 3.16C19.1 4.08 19.71 5.14 20.1 6.47C20.3 7.16 20.49 7.9 20.49 8.76C20.49 9.61 20.31 10.37 20.19 11.13C19.71 13.95 18.37 16.27 16.35 17.58C15.86 17.9 15.27 18.2 14.59 18.39C13.93 18.59 13.17 18.73 12.35 18.68C11.56 18.62 10.91 18.41 10.37 18.1C9.83 17.79 9.37 17.42 9.05 16.85Z" />
    </symbol>
    <symbol id="twitter" xmlns="http://www.w3.org/2000/svg" viewBox="0 0 26 22">
        <path  class="shp0" d="M17.51 0.6C19.55 0.56 20.63 1.31 21.66 2.25C22.54 2.17 23.68 1.68 24.35 1.34C24.57 1.22 24.79 1.1 25.01 0.98C24.62 2.02 24.1 2.83 23.3 3.45C23.13 3.59 22.95 3.77 22.73 3.86C22.73 3.86 22.73 3.87 22.73 3.87C23.87 3.86 24.81 3.35 25.7 3.07C25.7 3.07 25.7 3.07 25.7 3.08C25.23 3.82 24.6 4.58 23.92 5.12C23.65 5.34 23.37 5.56 23.1 5.77C23.11 6.98 23.08 8.13 22.86 9.15C21.54 15.04 18.07 19.04 12.57 20.76C10.59 21.37 7.4 21.63 5.14 21.07C4.01 20.79 3 20.47 2.05 20.06C1.52 19.83 1.03 19.57 0.56 19.29C0.41 19.2 0.25 19.1 0.1 19.01C0.61 19.02 1.21 19.16 1.78 19.07C2.29 18.99 2.8 19.01 3.28 18.91C4.47 18.65 5.52 18.3 6.43 17.77C6.87 17.51 7.54 17.21 7.85 16.84C7.26 16.85 6.73 16.71 6.29 16.56C4.59 15.96 3.6 14.85 2.96 13.2C3.47 13.25 4.96 13.39 5.3 13.09C4.65 13.06 4.03 12.68 3.59 12.4C2.22 11.55 1.1 10.12 1.11 7.91C1.29 7.99 1.47 8.08 1.65 8.16C1.99 8.31 2.34 8.39 2.75 8.47C2.93 8.51 3.27 8.61 3.47 8.53C3.46 8.53 3.45 8.53 3.44 8.53C3.18 8.23 2.75 8.02 2.48 7.69C1.61 6.6 0.78 4.92 1.3 2.93C1.44 2.42 1.65 1.97 1.87 1.56C1.88 1.56 1.89 1.57 1.89 1.57C2 1.79 2.22 1.94 2.37 2.12C2.82 2.68 3.37 3.18 3.93 3.62C5.85 5.12 7.58 6.04 10.35 6.72C11.05 6.89 11.87 7.03 12.71 7.03C12.47 6.34 12.55 5.23 12.73 4.56C13.2 2.89 14.22 1.68 15.71 1.04C16.06 0.88 16.46 0.77 16.87 0.68C17.09 0.65 17.3 0.63 17.51 0.6Z" />
    </symbol>
</svg>